<svg xmlns="http://www.w3.org/2000/svg" xmlns:xlink="http://www.w3.org/1999/xlink" width="500" zoomAndPan="magnify" viewBox="0 0 375 374.999991" height="500" preserveAspectRatio="xMidYMid meet" version="1.0"><defs><g/><clipPath id="31d7d3b872"><path d="M 222 106 L 260 106 L 260 155 L 222 155 Z M 222 106 " clip-rule="nonzero"/></clipPath><clipPath id="e41eeecbad"><path d="M 226.546875 103.242188 L 288.34375 118.90625 L 277.46875 161.800781 L 215.675781 146.136719 Z M 226.546875 103.242188 " clip-rule="nonzero"/></clipPath><clipPath id="21fae30ece"><path d="M 226.546875 103.242188 L 288.34375 118.90625 L 277.46875 161.800781 L 215.675781 146.136719 Z M 226.546875 103.242188 " clip-rule="nonzero"/></clipPath><clipPath id="f6107520aa"><path d="M 233 114 L 286 114 L 286 157 L 233 157 Z M 233 114 " clip-rule="nonzero"/></clipPath><clipPath id="4376fe9c05"><path d="M 226.546875 103.242188 L 288.34375 118.90625 L 277.46875 161.800781 L 215.675781 146.136719 Z M 226.546875 103.242188 " clip-rule="nonzero"/></clipPath><clipPath id="9ddfb22ad8"><path d="M 226.546875 103.242188 L 288.34375 118.90625 L 277.46875 161.800781 L 215.675781 146.136719 Z M 226.546875 103.242188 " clip-rule="nonzero"/></clipPath></defs><g clip-path="url(#31d7d3b872)"><g clip-path="url(#e41eeecbad)"><g clip-path="url(#21fae30ece)"><path fill="#f8f5f2" d="M 247.933594 148.003906 C 247.617188 147.875 247.289062 147.761719 246.96875 147.640625 L 246.480469 147.457031 L 245.992188 147.292969 L 245.007812 146.964844 L 244.011719 146.671875 L 243.511719 146.527344 L 242 146.140625 L 240.984375 145.917969 L 240.472656 145.804688 L 239.957031 145.710938 C 238.574219 145.464844 237.179688 145.300781 235.785156 145.226562 C 233.804688 145.117188 231.828125 145.152344 229.871094 145.304688 C 230.285156 144.183594 230.636719 143.03125 230.914062 141.859375 C 231.941406 141.75 233.007812 141.691406 234.070312 141.660156 C 235.363281 141.625 236.664062 141.628906 237.957031 141.675781 C 239.253906 141.722656 240.546875 141.8125 241.824219 141.972656 C 242.464844 142.050781 243.09375 142.148438 243.726562 142.265625 C 244.359375 142.378906 244.988281 142.523438 245.617188 142.671875 C 250.640625 143.890625 255.414062 146.304688 259.496094 149.621094 L 259.605469 149.496094 C 257.6875 147.679688 255.566406 146.058594 253.28125 144.683594 C 251 143.3125 248.550781 142.1875 245.996094 141.351562 C 245.355469 141.144531 244.710938 140.949219 244.058594 140.78125 C 243.40625 140.609375 242.738281 140.46875 242.078125 140.339844 C 240.753906 140.089844 239.421875 139.914062 238.089844 139.78125 C 236.753906 139.648438 235.417969 139.5625 234.078125 139.515625 C 233.179688 139.484375 232.289062 139.46875 231.375 139.492188 C 231.574219 138.234375 231.695312 136.96875 231.730469 135.703125 C 231.796875 133.699219 231.746094 131.6875 231.5625 129.699219 C 231.46875 128.703125 231.335938 127.710938 231.160156 126.730469 C 230.980469 125.746094 230.761719 124.777344 230.457031 123.832031 C 230.578125 124.816406 230.636719 125.796875 230.648438 126.777344 C 230.660156 127.761719 230.632812 128.738281 230.574219 129.714844 C 230.492188 131.117188 230.351562 132.511719 230.15625 133.894531 C 229.304688 132.863281 228.539062 131.761719 227.875 130.617188 C 227.378906 129.753906 226.949219 128.863281 226.605469 127.957031 C 226.433594 127.507812 226.289062 127.050781 226.175781 126.597656 C 226.144531 126.484375 226.117188 126.371094 226.09375 126.261719 C 226.066406 126.148438 226.042969 126.035156 226.023438 125.914062 L 225.957031 125.554688 L 225.902344 125.195312 C 225.625 123.28125 225.679688 121.316406 226.070312 119.433594 C 226.261719 118.492188 226.542969 117.566406 226.886719 116.6875 C 227.238281 115.8125 227.675781 114.980469 228.195312 114.230469 C 228.714844 113.484375 229.308594 112.8125 229.976562 112.273438 C 230.3125 112.003906 230.660156 111.765625 231.027344 111.566406 C 231.207031 111.46875 231.40625 111.367188 231.609375 111.277344 C 231.808594 111.1875 232.015625 111.101562 232.222656 111.027344 C 233.058594 110.714844 233.9375 110.550781 234.8125 110.4375 C 235.691406 110.328125 236.582031 110.265625 237.480469 110.339844 C 237.929688 110.375 238.371094 110.453125 238.8125 110.570312 C 239.292969 110.710938 239.777344 110.867188 240.253906 111.039062 C 241.207031 111.386719 242.152344 111.789062 243.058594 112.265625 C 243.972656 112.730469 244.855469 113.273438 245.675781 113.910156 C 246.503906 114.535156 247.265625 115.261719 247.921875 116.109375 L 247.96875 116.085938 C 247.777344 115.582031 247.535156 115.089844 247.257812 114.617188 C 246.980469 114.144531 246.671875 113.6875 246.332031 113.253906 C 245.648438 112.386719 244.871094 111.585938 244.03125 110.851562 C 243.1875 110.125 242.292969 109.453125 241.339844 108.855469 C 240.867188 108.554688 240.382812 108.265625 239.882812 107.996094 C 239.34375 107.707031 238.769531 107.457031 238.179688 107.261719 C 237.003906 106.863281 235.75 106.664062 234.511719 106.730469 C 233.269531 106.789062 232.054688 107.097656 230.902344 107.539062 C 230.613281 107.652344 230.328125 107.773438 230.046875 107.90625 C 229.765625 108.039062 229.492188 108.183594 229.207031 108.34375 C 228.648438 108.664062 228.125 109.035156 227.640625 109.441406 C 226.667969 110.261719 225.859375 111.210938 225.199219 112.226562 C 224.53125 113.242188 224.011719 114.320312 223.601562 115.429688 C 223.207031 116.539062 222.898438 117.660156 222.710938 118.8125 C 222.527344 119.960938 222.429688 121.121094 222.453125 122.28125 C 222.472656 123.4375 222.582031 124.59375 222.8125 125.726562 L 222.902344 126.152344 L 223 126.574219 C 223.066406 126.851562 223.152344 127.152344 223.238281 127.433594 C 223.414062 128.003906 223.621094 128.550781 223.855469 129.082031 C 224.320312 130.144531 224.886719 131.136719 225.503906 132.082031 C 226.125 133.023438 226.8125 133.914062 227.550781 134.753906 C 228.207031 135.496094 228.910156 136.195312 229.652344 136.855469 C 229.550781 137.347656 229.4375 137.835938 229.308594 138.328125 C 229.070312 139.25 228.773438 140.15625 228.457031 141.054688 C 228.300781 141.503906 228.128906 141.949219 227.964844 142.394531 L 227.4375 143.722656 L 226.332031 146.386719 L 225.433594 148.589844 L 227.792969 148.367188 C 229.121094 148.242188 230.441406 148.121094 231.757812 148.027344 C 232.417969 147.988281 233.074219 147.949219 233.734375 147.925781 C 234.0625 147.910156 234.390625 147.902344 234.71875 147.898438 C 235.046875 147.890625 235.375 147.886719 235.703125 147.882812 C 236.03125 147.882812 236.359375 147.890625 236.6875 147.890625 L 237.667969 147.921875 C 238.324219 147.953125 238.976562 147.988281 239.625 148.058594 L 240.113281 148.105469 L 240.601562 148.167969 L 241.585938 148.289062 L 242.566406 148.445312 L 243.058594 148.523438 L 243.546875 148.617188 C 244.851562 148.851562 246.144531 149.164062 247.429688 149.507812 C 248.714844 149.867188 249.988281 150.269531 251.246094 150.730469 C 253.765625 151.644531 256.222656 152.777344 258.601562 154.082031 C 256.457031 152.417969 254.144531 150.941406 251.695312 149.699219 C 250.46875 149.085938 249.21875 148.503906 247.933594 148.003906 Z M 247.933594 148.003906 " fill-opacity="1" fill-rule="nonzero"/></g></g></g><g clip-path="url(#f6107520aa)"><g clip-path="url(#4376fe9c05)"><g clip-path="url(#9ddfb22ad8)"><path fill="#f8f5f2" d="M 284.824219 132.199219 C 284.960938 131.203125 285.023438 130.207031 285.027344 129.210938 C 285.027344 128.210938 284.960938 127.195312 284.792969 126.175781 C 284.621094 125.15625 284.355469 124.136719 283.957031 123.132812 C 283.5625 122.117188 283.003906 121.152344 282.332031 120.273438 C 281.65625 119.40625 280.863281 118.632812 280 117.980469 C 278.265625 116.683594 276.292969 115.867188 274.316406 115.382812 C 273.324219 115.132812 272.3125 114.980469 271.335938 114.878906 C 270.351562 114.78125 269.363281 114.742188 268.378906 114.753906 C 266.414062 114.777344 264.472656 115.003906 262.578125 115.394531 C 261.632812 115.585938 260.695312 115.8125 259.777344 116.082031 C 258.855469 116.351562 257.949219 116.652344 257.070312 116.964844 C 256.191406 117.277344 255.328125 117.609375 254.488281 117.9375 C 253.644531 118.261719 252.8125 118.578125 251.988281 118.871094 C 251.574219 119.019531 251.167969 119.160156 250.757812 119.296875 L 249.476562 119.710938 C 248.632812 119.976562 247.800781 120.21875 246.980469 120.425781 C 245.34375 120.84375 243.714844 121.074219 242.296875 120.835938 C 240.855469 120.609375 239.445312 119.929688 238.144531 118.894531 C 237.492188 118.382812 236.867188 117.789062 236.265625 117.140625 C 235.664062 116.496094 235.085938 115.796875 234.492188 115.066406 L 234.339844 115.128906 C 234.453125 116.074219 234.707031 116.996094 235.0625 117.890625 C 235.425781 118.785156 235.894531 119.652344 236.496094 120.460938 C 237.097656 121.261719 237.824219 122.007812 238.691406 122.617188 C 238.90625 122.765625 239.128906 122.914062 239.359375 123.050781 C 239.589844 123.183594 239.828125 123.308594 240.070312 123.421875 C 240.558594 123.65625 241.070312 123.839844 241.597656 123.980469 C 242.117188 124.121094 242.664062 124.214844 243.195312 124.257812 C 243.726562 124.304688 244.25 124.320312 244.761719 124.304688 C 245.785156 124.277344 246.773438 124.152344 247.730469 123.984375 C 248.6875 123.816406 249.613281 123.589844 250.519531 123.363281 L 251.855469 123.011719 C 252.316406 122.886719 252.773438 122.761719 253.222656 122.621094 C 254.125 122.34375 255.003906 122.046875 255.871094 121.753906 L 258.421875 120.886719 C 259.261719 120.605469 260.085938 120.355469 260.914062 120.132812 C 261.742188 119.90625 262.574219 119.703125 263.410156 119.542969 C 265.082031 119.21875 266.765625 119.007812 268.4375 118.988281 C 270.101562 118.964844 271.785156 119.097656 273.324219 119.460938 C 274.875 119.828125 276.328125 120.441406 277.515625 121.316406 C 278.109375 121.75 278.632812 122.253906 279.082031 122.8125 C 279.519531 123.375 279.890625 123.988281 280.160156 124.664062 C 280.445312 125.347656 280.652344 126.09375 280.789062 126.863281 C 280.933594 127.632812 281.007812 128.433594 281.027344 129.253906 C 281.042969 130.070312 281.007812 130.894531 280.917969 131.699219 C 280.824219 132.507812 280.667969 133.296875 280.460938 134.066406 C 280.25 134.832031 279.972656 135.574219 279.628906 136.273438 C 279.28125 136.96875 278.875 137.625 278.382812 138.238281 C 277.414062 139.464844 276.171875 140.53125 274.777344 141.363281 C 274.074219 141.777344 273.332031 142.15625 272.566406 142.472656 C 271.800781 142.792969 271.003906 143.050781 270.195312 143.265625 C 269.382812 143.480469 268.554688 143.640625 267.710938 143.753906 C 267.316406 143.808594 266.917969 143.851562 266.515625 143.886719 C 266.546875 143.757812 266.582031 143.636719 266.613281 143.507812 C 266.683594 143.234375 266.742188 142.960938 266.800781 142.6875 C 266.863281 142.410156 266.921875 142.136719 266.96875 141.859375 L 267.046875 141.441406 L 267.085938 141.234375 L 267.117188 140.960938 C 267.148438 140.601562 267.144531 140.265625 267.117188 139.929688 C 267.058594 139.265625 266.921875 138.632812 266.675781 137.992188 C 266.554688 137.671875 266.40625 137.355469 266.199219 137.027344 C 266.140625 136.945312 266.09375 136.863281 266.03125 136.78125 C 265.964844 136.695312 265.898438 136.609375 265.828125 136.527344 C 265.757812 136.449219 265.683594 136.371094 265.609375 136.296875 C 265.53125 136.222656 265.453125 136.15625 265.375 136.085938 C 264.734375 135.550781 264.03125 135.261719 263.386719 135.074219 C 262.738281 134.890625 262.117188 134.804688 261.558594 134.738281 C 260.417969 134.605469 259.285156 134.539062 258.167969 134.523438 C 255.921875 134.492188 253.734375 134.632812 251.582031 134.683594 C 251.042969 134.695312 250.507812 134.707031 249.972656 134.703125 C 249.433594 134.707031 248.917969 134.683594 248.386719 134.671875 C 247.335938 134.613281 246.289062 134.496094 245.25 134.324219 C 244.210938 134.136719 243.1875 133.886719 242.175781 133.566406 C 241.171875 133.238281 240.1875 132.832031 239.230469 132.359375 C 238.277344 131.882812 237.363281 131.316406 236.472656 130.695312 C 235.59375 130.066406 234.761719 129.367188 233.957031 128.621094 C 234.617188 129.492188 235.332031 130.335938 236.132812 131.105469 C 236.9375 131.871094 237.800781 132.582031 238.726562 133.214844 C 239.660156 133.835938 240.648438 134.386719 241.671875 134.863281 C 242.703125 135.324219 243.769531 135.707031 244.859375 136.027344 C 245.953125 136.328125 247.066406 136.554688 248.1875 136.71875 L 249.03125 136.824219 C 249.3125 136.863281 249.59375 136.890625 249.871094 136.914062 C 250.425781 136.964844 250.980469 137.003906 251.535156 137.039062 C 253.75 137.179688 255.933594 137.230469 258.058594 137.367188 C 259.121094 137.4375 260.167969 137.523438 261.199219 137.65625 C 261.460938 137.6875 261.707031 137.722656 261.9375 137.761719 C 262.167969 137.800781 262.386719 137.847656 262.589844 137.90625 C 262.992188 138.011719 263.316406 138.160156 263.519531 138.324219 L 263.59375 138.386719 C 263.613281 138.40625 263.636719 138.429688 263.65625 138.449219 C 263.675781 138.472656 263.691406 138.492188 263.710938 138.515625 L 263.78125 138.601562 C 263.871094 138.734375 263.964844 138.90625 264.054688 139.089844 C 264.230469 139.457031 264.378906 139.886719 264.472656 140.300781 C 264.523438 140.511719 264.5625 140.71875 264.582031 140.90625 C 264.585938 140.949219 264.585938 140.996094 264.59375 141.039062 L 264.597656 141.242188 L 264.601562 141.640625 C 264.605469 141.90625 264.605469 142.171875 264.605469 142.441406 C 264.605469 142.707031 264.605469 142.972656 264.597656 143.242188 C 264.582031 144.316406 264.5 145.394531 264.371094 146.464844 C 264.230469 147.535156 264.0625 148.605469 263.867188 149.675781 C 263.476562 151.816406 262.972656 153.941406 262.429688 156.058594 L 262.589844 156.109375 C 263.359375 154.0625 264.121094 152.011719 264.808594 149.917969 C 265.148438 148.882812 265.464844 147.832031 265.757812 146.773438 C 266.503906 146.789062 267.257812 146.777344 268.011719 146.726562 C 268.976562 146.660156 269.945312 146.53125 270.90625 146.339844 C 272.828125 145.953125 274.707031 145.289062 276.46875 144.355469 C 278.238281 143.402344 279.875 142.148438 281.222656 140.578125 C 281.894531 139.796875 282.484375 138.917969 282.980469 138.007812 C 283.46875 137.09375 283.863281 136.136719 284.171875 135.164062 C 284.472656 134.1875 284.683594 133.195312 284.824219 132.199219 Z M 284.824219 132.199219 " fill-opacity="1" fill-rule="nonzero"/></g></g></g><g fill="#ffbd70" fill-opacity="1"><g transform="translate(36.900324, 221.62005)"><g><path d="M 17.578125 -62.484375 L 16.015625 -62.40625 L 9.296875 -61.625 L 6.8125 -61.296875 L 4.328125 -60.859375 C 1.203125 -60.097656 -1.9375 -58.976562 -5.09375 -57.5 C -6.1875 -56.988281 -7.382812 -56.539062 -8.6875 -56.15625 L -9.390625 -55.90625 L -10.0625 -55.65625 C -11.644531 -54.9375 -13.554688 -54.164062 -15.796875 -53.34375 L -16.625 -53.046875 L -17.4375 -52.78125 C -17.988281 -52.59375 -18.179688 -52.394531 -18.015625 -52.1875 C -17.929688 -52.070312 -17.816406 -52.007812 -17.671875 -52 L -17.28125 -52 C -15.550781 -52.144531 -14.25 -52.351562 -13.375 -52.625 C -12.457031 -52.90625 -11.476562 -53.15625 -10.4375 -53.375 L -8.859375 -53.671875 L -7.265625 -53.953125 C -5.992188 -54.203125 -4.945312 -54.472656 -4.125 -54.765625 L -3.75 -54.859375 C -3.476562 -54.890625 -3.300781 -54.78125 -3.21875 -54.53125 L -3.0625 -54.046875 C -2.695312 -51.753906 -2.25 -49.601562 -1.71875 -47.59375 L -1.421875 -46.21875 L -1.21875 -44.84375 L -0.703125 -42.203125 L -0.15625 -39.53125 L 0.4375 -36.765625 L 0.9375 -33.953125 L 1.546875 -30.578125 L 2.09375 -27.1875 L 3.3125 -18.96875 L 3.53125 -16.96875 L 3.765625 -15 L 4.640625 -10.015625 L 5.515625 -4.984375 C 5.953125 -2.441406 6.445312 -0.476562 7 0.90625 L 7.359375 2.09375 L 7.734375 3.28125 L 8.03125 3.9375 L 8.359375 4.59375 C 8.648438 5.144531 9.085938 5.382812 9.671875 5.3125 C 10.003906 5.269531 10.390625 5.273438 10.828125 5.328125 C 11.390625 5.367188 11.945312 5.253906 12.5 4.984375 L 13.671875 4.3125 C 14.117188 4.019531 14.546875 3.8125 14.953125 3.6875 C 15.847656 3.394531 16.382812 2.796875 16.5625 1.890625 C 16.726562 1.003906 17.082031 0.015625 17.625 -1.078125 C 18.03125 -1.921875 18.21875 -2.953125 18.1875 -4.171875 L 18.09375 -6.828125 L 17.921875 -10.21875 C 17.910156 -10.820312 17.828125 -11.507812 17.671875 -12.28125 L 17.28125 -14.265625 C 16.96875 -15.847656 16.628906 -17.257812 16.265625 -18.5 L 15.796875 -20.21875 L 15.375 -21.96875 C 14.90625 -24.625 14.203125 -27.304688 13.265625 -30.015625 C 13.054688 -30.671875 12.84375 -31.519531 12.625 -32.5625 L 12.0625 -35.15625 L 11.71875 -36.8125 L 11.359375 -38.515625 L 10.578125 -41.796875 L 9.90625 -45.078125 C 9.820312 -45.554688 9.695312 -45.929688 9.53125 -46.203125 C 8.882812 -47.128906 8.566406 -48.160156 8.578125 -49.296875 L 8.5 -49.859375 L 8.375 -50.484375 C 8.207031 -51.078125 8.128906 -51.585938 8.140625 -52.015625 C 8.171875 -52.546875 8.035156 -53.234375 7.734375 -54.078125 L 7.34375 -55.265625 L 7 -56.484375 C 6.90625 -56.828125 7.050781 -57.050781 7.4375 -57.15625 L 7.828125 -57.25 C 9.585938 -57.664062 11.207031 -58.210938 12.6875 -58.890625 C 14.300781 -59.597656 15.597656 -60 16.578125 -60.09375 L 17.8125 -60.375 L 18.984375 -60.765625 C 19.523438 -60.941406 19.753906 -61.28125 19.671875 -61.78125 C 19.617188 -62.113281 19.351562 -62.3125 18.875 -62.375 Z M 17.578125 -62.484375 "/></g></g></g><g fill="#ffbd70" fill-opacity="1"><g transform="translate(68.67027, 216.105667)"><g><path d="M 21.046875 -19.390625 C 21.210938 -15.910156 19.765625 -13.332031 16.703125 -11.65625 C 16.015625 -11.289062 15.398438 -11.226562 14.859375 -11.46875 C 14.453125 -11.65625 14.078125 -12.039062 13.734375 -12.625 C 11.960938 -15.644531 11.15625 -18.671875 11.3125 -21.703125 C 11.332031 -22.367188 11.304688 -23.203125 11.234375 -24.203125 L 11.109375 -25.46875 L 11.015625 -26.703125 C 10.953125 -27.773438 11.035156 -29.15625 11.265625 -30.84375 L 11.578125 -32.875 L 11.796875 -34.90625 C 11.898438 -36.601562 12.65625 -38.03125 14.0625 -39.1875 C 15.070312 -40 16.488281 -40.710938 18.3125 -41.328125 C 19.375 -41.691406 20.03125 -41.132812 20.28125 -39.65625 C 20.476562 -37.15625 20.640625 -33.816406 20.765625 -29.640625 L 20.875 -24.546875 Z M 34.140625 -27.015625 C 33.941406 -29.046875 33.359375 -31.285156 32.390625 -33.734375 L 31.015625 -36.90625 L 29.578125 -40.015625 C 28.984375 -41.273438 28.457031 -42.234375 28 -42.890625 C 27.226562 -43.910156 26.304688 -44.65625 25.234375 -45.125 C 23.816406 -45.738281 22.601562 -45.898438 21.59375 -45.609375 C 20.5625 -45.316406 20.03125 -44.59375 20 -43.4375 C 20 -42.582031 19.570312 -42.273438 18.71875 -42.515625 C 16.238281 -43.222656 13.4375 -42.640625 10.3125 -40.765625 C 5.226562 -37.710938 2.078125 -32.707031 0.859375 -25.75 C -0.703125 -16.738281 1.210938 -10.117188 6.609375 -5.890625 C 9.441406 -3.671875 11.71875 -2.445312 13.4375 -2.21875 C 15.96875 -1.882812 18.648438 -3.195312 21.484375 -6.15625 L 21.6875 -6.359375 C 21.757812 -6.429688 21.816406 -6.460938 21.859375 -6.453125 C 22.054688 -6.410156 22.175781 -6.296875 22.21875 -6.109375 L 22.25 -5.875 L 22.234375 -5.65625 L 22.78125 2.25 C 22.832031 3.15625 23.207031 3.878906 23.90625 4.421875 C 24.613281 4.941406 25.40625 5.125 26.28125 4.96875 L 27.15625 4.734375 L 28.046875 4.5 C 28.753906 4.332031 29.363281 4.269531 29.875 4.3125 C 31.207031 4.40625 32.515625 3.957031 33.796875 2.96875 C 35.066406 1.9375 35.796875 0.765625 35.984375 -0.546875 L 36.265625 -2.53125 C 36.304688 -3.25 36.316406 -3.898438 36.296875 -4.484375 C 35.847656 -12.234375 35.128906 -19.742188 34.140625 -27.015625 Z M 34.140625 -27.015625 "/></g></g></g><g fill="#ffbd70" fill-opacity="1"><g transform="translate(111.000716, 211.061841)"><g><path d="M 7 -32.03125 C 7.0625 -30.582031 7.269531 -29.613281 7.625 -29.125 C 7.976562 -28.65625 8.785156 -28.238281 10.046875 -27.875 L 12.46875 -27.171875 C 13.394531 -26.898438 14.191406 -26.640625 14.859375 -26.390625 C 16.609375 -25.703125 18.03125 -24.832031 19.125 -23.78125 C 21.050781 -21.914062 22.382812 -19.867188 23.125 -17.640625 C 23.945312 -15.054688 23.789062 -12.601562 22.65625 -10.28125 L 21.71875 -8.40625 C 21.351562 -7.675781 21.003906 -7.0625 20.671875 -6.5625 C 19.773438 -5.1875 18.726562 -4.191406 17.53125 -3.578125 C 16.78125 -3.171875 16.171875 -2.96875 15.703125 -2.96875 C 10.171875 -3.082031 6.203125 -4.519531 3.796875 -7.28125 L 2.515625 -8.640625 L 1.25 -10.046875 C 0.300781 -11.140625 -0.351562 -12.210938 -0.71875 -13.265625 L -0.859375 -13.578125 L -0.984375 -13.90625 C -1.046875 -14.175781 -0.988281 -14.359375 -0.8125 -14.453125 C -0.644531 -14.554688 -0.476562 -14.5 -0.3125 -14.28125 L -0.125 -14 L 0.046875 -13.71875 C 0.585938 -12.882812 1.410156 -12.164062 2.515625 -11.5625 L 4.03125 -10.828125 L 5.53125 -10.140625 C 6.21875 -9.765625 6.835938 -9.820312 7.390625 -10.3125 L 8.765625 -11.5625 C 9.273438 -12.050781 9.707031 -12.507812 10.0625 -12.9375 C 10.945312 -14.007812 11.5 -15.140625 11.71875 -16.328125 C 12.050781 -18.140625 11.351562 -19.46875 9.625 -20.3125 L 7.375 -21.34375 C 6.53125 -21.75 5.835938 -22.144531 5.296875 -22.53125 C 0.984375 -25.550781 -1.347656 -28.84375 -1.703125 -32.40625 C -1.828125 -33.832031 -1.46875 -35.265625 -0.625 -36.703125 C 0.257812 -38.265625 1.390625 -39.210938 2.765625 -39.546875 L 3.890625 -39.90625 L 5.03125 -40.359375 C 5.9375 -40.710938 6.722656 -40.882812 7.390625 -40.875 C 9.878906 -40.832031 11.90625 -40.082031 13.46875 -38.625 C 15.0625 -37.113281 15.925781 -35.0625 16.0625 -32.46875 C 16.082031 -32.207031 16.066406 -32 16.015625 -31.84375 C 15.941406 -31.644531 15.800781 -31.515625 15.59375 -31.453125 C 15.382812 -31.398438 15.203125 -31.445312 15.046875 -31.59375 L 14.84375 -31.796875 L 14.703125 -32.03125 L 13.484375 -34.046875 C 13.015625 -34.878906 12.609375 -35.53125 12.265625 -36 C 11.316406 -37.363281 10.503906 -38.019531 9.828125 -37.96875 C 9.148438 -37.894531 8.46875 -37.113281 7.78125 -35.625 L 7.390625 -34.734375 L 7.046875 -33.828125 C 6.835938 -33.148438 6.820312 -32.550781 7 -32.03125 Z M 7 -32.03125 "/></g></g></g><g fill="#ffbd70" fill-opacity="1"><g transform="translate(142.424717, 208.623229)"><g><path d="M 30.765625 -10.15625 C 30.492188 -6.007812 29.90625 -2.253906 29 1.109375 L 28.890625 1.390625 L 28.765625 1.734375 C 28.703125 1.972656 28.785156 2.144531 29.015625 2.25 C 29.179688 2.320312 29.332031 2.265625 29.46875 2.078125 L 29.65625 1.78125 L 29.796875 1.546875 L 30.03125 1.3125 L 30.3125 1.125 L 30.34375 1.5 L 30.328125 1.796875 C 29.515625 3.953125 28.195312 5.664062 26.375 6.9375 C 24.363281 8.3125 22.269531 8.78125 20.09375 8.34375 C 11.363281 6.5625 6.453125 0.875 5.359375 -8.71875 C 4.367188 -17.476562 3.910156 -25.953125 3.984375 -34.140625 C 3.992188 -34.921875 3.503906 -35.253906 2.515625 -35.140625 L 0.453125 -34.875 L -1.625 -34.625 C -3.207031 -34.425781 -4.578125 -34.335938 -5.734375 -34.359375 L -6.1875 -34.375 L -6.6875 -34.421875 C -7.0625 -34.492188 -7.265625 -34.675781 -7.296875 -34.96875 C -7.316406 -35.207031 -7.171875 -35.40625 -6.859375 -35.5625 L -6.390625 -35.734375 L -5.96875 -35.875 C -2.601562 -36.8125 0.238281 -37.390625 2.5625 -37.609375 C 3.675781 -37.703125 4.25 -38.304688 4.28125 -39.421875 C 4.414062 -45.148438 4.722656 -50.128906 5.203125 -54.359375 L 5.234375 -55.21875 L 5.25 -56.15625 C 5.332031 -56.832031 5.644531 -57.171875 6.1875 -57.171875 L 7.65625 -57.25 C 8.269531 -57.269531 8.773438 -57.253906 9.171875 -57.203125 C 10.304688 -57.078125 11.171875 -56.550781 11.765625 -55.625 C 12.566406 -54.351562 13.1875 -52.78125 13.625 -50.90625 L 14.078125 -48.421875 L 14.46875 -45.90625 C 14.851562 -43.570312 15.175781 -41.320312 15.4375 -39.15625 C 15.519531 -38.46875 15.976562 -38.132812 16.8125 -38.15625 L 19.25 -38.25 L 21.6875 -38.359375 C 23.550781 -38.378906 25.164062 -38.25 26.53125 -37.96875 L 26.890625 -37.921875 L 27.234375 -37.890625 C 27.492188 -37.835938 27.691406 -37.703125 27.828125 -37.484375 L 27.15625 -37.21875 L 26.515625 -37.015625 L 17.421875 -35.75 C 16.484375 -35.613281 16.023438 -35.125 16.046875 -34.28125 L 16.453125 -19.578125 L 16.90625 -4.9375 C 16.957031 -3.863281 17.113281 -2.554688 17.375 -1.015625 L 17.71875 0.984375 L 18.0625 2.953125 L 18.15625 3.375 L 18.328125 3.765625 C 19.097656 5.816406 20.164062 6.050781 21.53125 4.46875 C 25.8125 -0.5 28.414062 -6.035156 29.34375 -12.140625 L 29.359375 -12.5625 L 29.421875 -13 C 29.484375 -13.320312 29.648438 -13.484375 29.921875 -13.484375 C 30.273438 -13.472656 30.445312 -13.3125 30.4375 -13 L 30.34375 -12.59375 L 30.359375 -12.203125 L 30.59375 -11.109375 Z M 30.765625 -10.15625 "/></g></g></g><g fill="#ffbd70" fill-opacity="1"><g transform="translate(178.777687, 207.342234)"><g><path d="M 13.703125 -26.65625 C 13.929688 -27.289062 14.175781 -28.082031 14.4375 -29.03125 L 15.046875 -31.453125 C 15.546875 -33.421875 16.210938 -34.941406 17.046875 -36.015625 L 17.171875 -36.1875 L 17.234375 -36.375 C 17.441406 -38.207031 18.195312 -39.195312 19.5 -39.34375 C 20.28125 -39.40625 21.15625 -39.0625 22.125 -38.3125 C 23.082031 -37.5625 23.679688 -36.785156 23.921875 -35.984375 L 24.109375 -35.203125 L 24.328125 -34.375 C 24.441406 -33.726562 24.484375 -33.109375 24.453125 -32.515625 C 23.722656 -30.242188 22.15625 -28.492188 19.75 -27.265625 C 19.039062 -26.878906 18.195312 -26.59375 17.21875 -26.40625 L 15.859375 -26.140625 L 14.5 -25.953125 C 14.15625 -25.890625 13.921875 -25.898438 13.796875 -25.984375 C 13.585938 -26.078125 13.554688 -26.300781 13.703125 -26.65625 Z M 35.28125 -18.953125 C 34.914062 -19.253906 34.578125 -19.28125 34.265625 -19.03125 L 33.890625 -18.65625 L 33.546875 -18.28125 L 32.015625 -16.5625 L 30.46875 -14.875 C 29.269531 -13.59375 28.109375 -12.632812 26.984375 -12 L 25.71875 -11.234375 L 24.40625 -10.546875 C 23.351562 -10.097656 22.40625 -10 21.5625 -10.25 C 19.332031 -10.9375 17.382812 -12.421875 15.71875 -14.703125 C 14.0625 -16.972656 13.191406 -19.300781 13.109375 -21.6875 C 13.046875 -23.269531 13.65625 -24.070312 14.9375 -24.09375 C 19.488281 -24.1875 23.472656 -25.707031 26.890625 -28.65625 C 28.203125 -29.789062 29.039062 -31.207031 29.40625 -32.90625 C 29.789062 -34.5625 29.585938 -35.941406 28.796875 -37.046875 C 26.242188 -40.535156 23.148438 -42.410156 19.515625 -42.671875 L 19.046875 -42.734375 L 18.703125 -42.796875 L 18.140625 -42.90625 L 16.625 -43.015625 L 15.125 -43.0625 C 13.988281 -43.019531 13.054688 -42.664062 12.328125 -42 C 10.890625 -40.664062 9.40625 -38.890625 7.875 -36.671875 C 2.875 -29.472656 0.722656 -23.046875 1.421875 -17.390625 C 2.273438 -10.441406 4.75 -5.4375 8.84375 -2.375 C 11.320312 -0.519531 14.050781 0.34375 17.03125 0.21875 C 19.96875 0.113281 22.378906 -0.894531 24.265625 -2.8125 C 28.691406 -7.394531 32.242188 -12.222656 34.921875 -17.296875 L 35.234375 -17.625 L 35.578125 -18.03125 C 35.785156 -18.34375 35.6875 -18.648438 35.28125 -18.953125 Z M 35.28125 -18.953125 "/></g></g></g><g fill="#ffbd70" fill-opacity="1"><g transform="translate(219.614199, 207.901758)"><g><path d="M 38.328125 -48.78125 C 37.984375 -50.46875 37.128906 -51.476562 35.765625 -51.8125 C 34.160156 -52.207031 32.671875 -52.019531 31.296875 -51.25 C 29.921875 -50.4375 29.164062 -49.300781 29.03125 -47.84375 L 28.28125 -41.015625 L 27.546875 -34.203125 C 27.429688 -33.097656 26.925781 -32.253906 26.03125 -31.671875 C 24.59375 -30.816406 22.910156 -30.285156 20.984375 -30.078125 C 20.210938 -29.984375 19.332031 -29.9375 18.34375 -29.9375 L 15.6875 -30.03125 C 15.34375 -30.050781 15.140625 -30.195312 15.078125 -30.46875 L 15.03125 -30.875 L 15.0625 -31.25 L 15.234375 -34.859375 C 15.304688 -36.304688 15.320312 -37.5 15.28125 -38.4375 L 15.078125 -44.421875 L 14.734375 -50.40625 L 14.6875 -51.234375 L 14.65625 -52.078125 C 14.632812 -52.703125 14.550781 -53.21875 14.40625 -53.625 C 14.082031 -54.695312 13.242188 -55.359375 11.890625 -55.609375 L 10.1875 -55.921875 L 8.46875 -56.125 C 7.175781 -56.164062 6.066406 -55.867188 5.140625 -55.234375 C 4.234375 -54.609375 3.78125 -53.828125 3.78125 -52.890625 C 3.78125 -49.523438 3.597656 -45.253906 3.234375 -40.078125 L 2.78125 -33.71875 L 2.390625 -27.328125 L 2.03125 -19.4375 L 1.5625 -11.53125 C 1.132812 -5.632812 0.550781 -0.410156 -0.1875 4.140625 C -0.289062 4.859375 -0.128906 5.410156 0.296875 5.796875 C 0.742188 6.171875 1.25 6.179688 1.8125 5.828125 C 2.5625 5.359375 3.570312 5.289062 4.84375 5.625 C 7.007812 6.207031 8.503906 5.585938 9.328125 3.765625 C 10.171875 1.953125 10.765625 0.195312 11.109375 -1.5 C 11.867188 -5.144531 12.535156 -9.296875 13.109375 -13.953125 L 13.8125 -20.203125 L 14.46875 -26.453125 C 14.550781 -27.472656 15.128906 -27.898438 16.203125 -27.734375 L 18.453125 -27.3125 L 20.703125 -26.9375 C 22.441406 -26.695312 23.96875 -26.753906 25.28125 -27.109375 C 26.082031 -27.316406 26.472656 -26.941406 26.453125 -25.984375 L 26.375 -21.96875 L 26.3125 -17.984375 L 25.9375 -12.171875 C 25.84375 -9.941406 25.925781 -8.015625 26.1875 -6.390625 L 26.234375 -6.015625 L 26.265625 -5.578125 C 26.328125 -5.285156 26.476562 -5.175781 26.71875 -5.25 C 26.957031 -5.320312 27.265625 -5.367188 27.640625 -5.390625 L 28.578125 -5.421875 C 29.347656 -5.472656 29.941406 -5.722656 30.359375 -6.171875 C 30.847656 -6.722656 31.441406 -6.992188 32.140625 -6.984375 C 33.660156 -6.972656 34.65625 -7.703125 35.125 -9.171875 C 35.894531 -11.710938 36.585938 -14.84375 37.203125 -18.5625 L 38.375 -26.078125 C 38.757812 -28.847656 39.03125 -31.351562 39.1875 -33.59375 C 39.570312 -39.1875 39.285156 -44.25 38.328125 -48.78125 Z M 38.328125 -48.78125 "/></g></g></g><g fill="#ffbd70" fill-opacity="1"><g transform="translate(261.692071, 210.726562)"><g><path d="M 2.65625 -21 C 2.707031 -22.707031 3.03125 -24.800781 3.625 -27.28125 L 4.46875 -30.5 L 5.296875 -33.75 C 5.335938 -33.925781 5.34375 -34.140625 5.3125 -34.390625 L 5.25 -35.046875 C 5.175781 -35.585938 5.300781 -36.019531 5.625 -36.34375 C 6.132812 -36.84375 6.738281 -37.132812 7.4375 -37.21875 C 8.039062 -37.320312 8.628906 -37.242188 9.203125 -36.984375 C 10.585938 -36.390625 11.304688 -35.164062 11.359375 -33.3125 L 11.578125 -28.984375 L 11.8125 -24.671875 C 12 -21.242188 11.96875 -18.359375 11.71875 -16.015625 C 11.425781 -13.316406 11.4375 -10.132812 11.75 -6.46875 C 11.957031 -4.351562 12.851562 -2.867188 14.4375 -2.015625 C 15.71875 -1.304688 17.015625 -1.382812 18.328125 -2.25 C 19.640625 -3.125 20.390625 -4.378906 20.578125 -6.015625 C 20.804688 -8.160156 21.144531 -10.609375 21.59375 -13.359375 L 22.8125 -20.65625 L 24.046875 -27.46875 L 25.3125 -34.34375 C 25.394531 -34.894531 25.648438 -35.21875 26.078125 -35.3125 C 27.347656 -35.582031 28.640625 -35.316406 29.953125 -34.515625 C 31.398438 -33.640625 32.160156 -32.4375 32.234375 -30.90625 L 32.203125 -29.5625 L 32.203125 -28.15625 C 32.234375 -27.070312 32.523438 -26.191406 33.078125 -25.515625 C 33.171875 -25.421875 33.207031 -25.242188 33.1875 -24.984375 L 33.109375 -24.359375 C 32.722656 -21.742188 32.503906 -18.390625 32.453125 -14.296875 L 32.390625 -9.25 L 32.25 -4.21875 L 32.0625 -0.71875 L 31.78125 2.75 C 31.476562 5.34375 30.976562 7.597656 30.28125 9.515625 C 29.851562 10.710938 28.773438 11.90625 27.046875 13.09375 C 26.171875 13.6875 25.378906 13.910156 24.671875 13.765625 C 24.390625 13.691406 24.082031 13.566406 23.75 13.390625 L 23.265625 13.109375 L 22.78125 12.78125 L 22.25 12.40625 L 21.78125 12 C 19.625 10.238281 18.800781 7.265625 19.3125 3.078125 C 19.4375 1.972656 19.410156 1.347656 19.234375 1.203125 C 19.078125 1.046875 18.5 1.101562 17.5 1.375 C 15.082031 2.019531 12.832031 1.46875 10.75 -0.28125 C 10.289062 -0.675781 9.710938 -1.09375 9.015625 -1.53125 L 7.171875 -2.6875 C 4.773438 -4.175781 3.273438 -6.304688 2.671875 -9.078125 C 2.046875 -11.910156 2.039062 -15.882812 2.65625 -21 Z M 2.65625 -21 "/></g></g></g><g fill="#ffbd70" fill-opacity="1"><g transform="translate(298.630488, 214.948795)"><g><path d="M 29.171875 -15.8125 L 29.171875 -17.15625 C 29.140625 -18.15625 29.097656 -18.972656 29.046875 -19.609375 L 28.828125 -21.296875 C 28.710938 -21.921875 28.582031 -22.472656 28.4375 -22.953125 C 28.039062 -24.128906 27.414062 -25.003906 26.5625 -25.578125 C 24.875 -26.691406 22.414062 -27.238281 19.1875 -27.21875 C 18.5625 -27.207031 18.242188 -26.882812 18.234375 -26.25 L 18.140625 -23.625 L 18.046875 -21.015625 L 17.75 -17.125 C 17.65625 -15.625 17.507812 -14.347656 17.3125 -13.296875 L 16.234375 -7.96875 C 15.859375 -5.914062 15.582031 -4.132812 15.40625 -2.625 L 15.40625 -2.28125 L 15.453125 -1.953125 C 15.523438 -1.734375 15.679688 -1.65625 15.921875 -1.71875 C 16.234375 -1.8125 16.578125 -1.875 16.953125 -1.90625 L 18 -1.859375 C 18.875 -1.828125 19.550781 -1.921875 20.03125 -2.140625 C 24.613281 -4.429688 27.675781 -8.488281 29.21875 -14.3125 Z M 19.9375 -42.46875 C 19.957031 -41.957031 19.914062 -41.332031 19.8125 -40.59375 L 19.5625 -38.6875 C 19.351562 -37.007812 19.375 -35.628906 19.625 -34.546875 C 19.675781 -34.378906 19.679688 -34.148438 19.640625 -33.859375 L 19.4375 -33.1875 C 18.976562 -31.84375 18.832031 -31.03125 19 -30.75 C 19.1875 -30.457031 19.976562 -30.273438 21.375 -30.203125 C 24.894531 -30.054688 28.144531 -28.703125 31.125 -26.140625 C 34.382812 -23.296875 35.851562 -19.484375 35.53125 -14.703125 C 35.175781 -8.703125 33.472656 -4.320312 30.421875 -1.5625 C 25.179688 3.195312 20.210938 4.726562 15.515625 3.03125 C 13.828125 2.414062 12.238281 2.472656 10.75 3.203125 C 9.96875 3.597656 8.972656 3.800781 7.765625 3.8125 L 6.21875 3.75 L 4.703125 3.703125 C 4.085938 3.742188 3.445312 3.242188 2.78125 2.203125 C 2.132812 1.191406 1.796875 0.222656 1.765625 -0.703125 C 1.523438 -5.972656 2.46875 -13.617188 4.59375 -23.640625 L 5.328125 -27.53125 L 5.90625 -31.46875 C 6.40625 -34.738281 6.921875 -37.335938 7.453125 -39.265625 L 8.703125 -43.78125 L 9.796875 -48.3125 C 10.585938 -51.675781 11.125 -54.738281 11.40625 -57.5 C 11.46875 -58.125 11.914062 -58.488281 12.75 -58.59375 C 13.582031 -58.71875 14.359375 -58.503906 15.078125 -57.953125 C 15.765625 -57.472656 16.554688 -57.007812 17.453125 -56.5625 C 19.296875 -55.644531 20.242188 -53.960938 20.296875 -51.515625 C 20.328125 -50.054688 20.3125 -48.613281 20.25 -47.1875 L 20.09375 -45 L 20.015625 -43.765625 Z M 19.9375 -42.46875 "/></g></g></g></svg>