<svg xmlns="http://www.w3.org/2000/svg" xmlns:xlink="http://www.w3.org/1999/xlink" width="200" zoomAndPan="magnify" viewBox="0 0 150 74.999997" height="100" preserveAspectRatio="xMidYMid meet" version="1.0"><defs><g/><clipPath id="500480c2e0"><path d="M 95 5 L 114 5 L 114 26 L 95 26 Z M 95 5 " clip-rule="nonzero"/></clipPath><clipPath id="13802fb175"><path d="M 97.683594 3.464844 L 126.476562 10.761719 L 121.785156 29.273438 L 92.992188 21.976562 Z M 97.683594 3.464844 " clip-rule="nonzero"/></clipPath><clipPath id="21536e9e8b"><path d="M 97.683594 3.464844 L 126.476562 10.761719 L 121.785156 29.273438 L 92.992188 21.976562 Z M 97.683594 3.464844 " clip-rule="nonzero"/></clipPath><clipPath id="ff650dd6ee"><path d="M 101 8 L 126 8 L 126 27 L 101 27 Z M 101 8 " clip-rule="nonzero"/></clipPath><clipPath id="9a86e8f203"><path d="M 97.683594 3.464844 L 126.476562 10.761719 L 121.785156 29.273438 L 92.992188 21.976562 Z M 97.683594 3.464844 " clip-rule="nonzero"/></clipPath><clipPath id="7fc0b0a166"><path d="M 97.683594 3.464844 L 126.476562 10.761719 L 121.785156 29.273438 L 92.992188 21.976562 Z M 97.683594 3.464844 " clip-rule="nonzero"/></clipPath></defs><g clip-path="url(#500480c2e0)"><g clip-path="url(#13802fb175)"><g clip-path="url(#21536e9e8b)"><path fill="#f8f5f2" d="M 107.972656 23.054688 C 107.820312 22.996094 107.667969 22.945312 107.519531 22.886719 L 107.292969 22.804688 L 107.0625 22.730469 L 106.605469 22.578125 L 106.140625 22.445312 L 105.90625 22.378906 L 105.671875 22.316406 L 105.203125 22.199219 L 104.730469 22.09375 L 104.492188 22.039062 L 104.25 21.996094 C 103.609375 21.875 102.960938 21.792969 102.3125 21.75 C 101.394531 21.6875 100.476562 21.6875 99.570312 21.734375 C 99.753906 21.253906 99.90625 20.753906 100.027344 20.25 C 100.503906 20.210938 100.996094 20.195312 101.488281 20.1875 C 102.089844 20.183594 102.691406 20.195312 103.292969 20.226562 C 103.894531 20.257812 104.492188 20.308594 105.089844 20.386719 C 105.386719 20.425781 105.679688 20.472656 105.972656 20.53125 C 106.269531 20.585938 106.5625 20.652344 106.855469 20.722656 C 109.191406 21.292969 111.425781 22.375 113.34375 23.847656 L 113.394531 23.796875 C 112.492188 22.992188 111.496094 22.273438 110.421875 21.65625 C 109.355469 21.042969 108.210938 20.535156 107.015625 20.152344 C 106.71875 20.058594 106.417969 19.964844 106.113281 19.890625 C 105.8125 19.808594 105.5 19.742188 105.191406 19.679688 C 104.574219 19.5625 103.957031 19.476562 103.339844 19.40625 C 102.71875 19.339844 102.097656 19.289062 101.476562 19.257812 C 101.058594 19.238281 100.644531 19.222656 100.222656 19.226562 C 100.304688 18.683594 100.351562 18.132812 100.355469 17.585938 C 100.371094 16.714844 100.332031 15.84375 100.230469 14.980469 C 100.179688 14.546875 100.109375 14.113281 100.019531 13.6875 C 99.925781 13.261719 99.816406 12.835938 99.671875 12.425781 C 99.734375 12.851562 99.769531 13.277344 99.78125 13.703125 C 99.796875 14.128906 99.789062 14.554688 99.773438 14.980469 C 99.746094 15.585938 99.691406 16.1875 99.613281 16.789062 C 99.207031 16.332031 98.84375 15.847656 98.527344 15.347656 C 98.289062 14.96875 98.082031 14.578125 97.917969 14.183594 C 97.835938 13.988281 97.761719 13.789062 97.707031 13.589844 C 97.691406 13.542969 97.675781 13.492188 97.664062 13.441406 C 97.652344 13.394531 97.640625 13.34375 97.628906 13.292969 L 97.597656 13.136719 L 97.570312 12.980469 C 97.425781 12.144531 97.433594 11.296875 97.601562 10.480469 C 97.679688 10.074219 97.804688 9.675781 97.957031 9.296875 C 98.113281 8.917969 98.308594 8.5625 98.542969 8.242188 C 98.777344 7.921875 99.046875 7.632812 99.355469 7.40625 C 99.507812 7.292969 99.667969 7.191406 99.835938 7.105469 C 99.917969 7.066406 100.007812 7.023438 100.101562 6.988281 C 100.195312 6.949219 100.289062 6.914062 100.386719 6.882812 C 100.769531 6.753906 101.175781 6.691406 101.582031 6.648438 C 101.988281 6.609375 102.402344 6.585938 102.816406 6.628906 C 103.027344 6.648438 103.230469 6.683594 103.4375 6.738281 C 103.660156 6.800781 103.886719 6.875 104.109375 6.953125 C 104.554688 7.113281 104.996094 7.292969 105.417969 7.507812 C 105.847656 7.71875 106.261719 7.960938 106.648438 8.242188 C 107.035156 8.519531 107.394531 8.84375 107.707031 9.214844 L 107.726562 9.203125 C 107.636719 8.984375 107.519531 8.769531 107.386719 8.5625 C 107.253906 8.355469 107.105469 8.15625 106.945312 7.964844 C 106.621094 7.582031 106.253906 7.226562 105.859375 6.902344 C 105.464844 6.578125 105.042969 6.28125 104.597656 6.015625 C 104.375 5.878906 104.144531 5.75 103.914062 5.628906 C 103.660156 5.5 103.390625 5.386719 103.117188 5.296875 C 102.570312 5.113281 101.984375 5.019531 101.410156 5.039062 C 100.835938 5.054688 100.273438 5.175781 99.742188 5.359375 C 99.609375 5.40625 99.480469 5.457031 99.351562 5.511719 C 99.222656 5.566406 99.097656 5.625 98.964844 5.695312 C 98.707031 5.828125 98.46875 5.984375 98.246094 6.160156 C 97.804688 6.503906 97.433594 6.910156 97.136719 7.347656 C 96.835938 7.78125 96.601562 8.246094 96.421875 8.722656 C 96.25 9.203125 96.113281 9.6875 96.035156 10.183594 C 95.960938 10.679688 95.925781 11.183594 95.945312 11.6875 C 95.960938 12.1875 96.023438 12.691406 96.140625 13.183594 L 96.183594 13.371094 L 96.234375 13.554688 C 96.265625 13.675781 96.308594 13.804688 96.351562 13.929688 C 96.4375 14.175781 96.539062 14.417969 96.648438 14.648438 C 96.875 15.113281 97.144531 15.546875 97.441406 15.964844 C 97.734375 16.378906 98.0625 16.769531 98.410156 17.140625 C 98.71875 17.46875 99.050781 17.777344 99.402344 18.066406 C 99.359375 18.28125 99.308594 18.492188 99.253906 18.703125 C 99.152344 19.101562 99.019531 19.492188 98.882812 19.878906 C 98.8125 20.074219 98.738281 20.265625 98.664062 20.457031 L 98.429688 21.03125 L 97.941406 22.175781 L 97.539062 23.125 L 98.632812 23.046875 C 99.25 23.003906 99.859375 22.960938 100.46875 22.933594 C 100.773438 22.921875 101.078125 22.910156 101.382812 22.90625 C 101.539062 22.902344 101.6875 22.902344 101.839844 22.902344 C 101.992188 22.898438 102.144531 22.902344 102.296875 22.902344 C 102.449219 22.90625 102.601562 22.910156 102.753906 22.914062 L 103.210938 22.9375 C 103.511719 22.953125 103.816406 22.976562 104.117188 23.011719 L 104.34375 23.035156 L 104.570312 23.066406 L 105.027344 23.125 L 105.484375 23.203125 L 105.710938 23.238281 L 105.941406 23.285156 C 106.546875 23.398438 107.148438 23.542969 107.75 23.703125 C 108.347656 23.867188 108.941406 24.054688 109.527344 24.261719 C 110.703125 24.679688 111.851562 25.191406 112.96875 25.777344 C 111.960938 25.039062 110.875 24.378906 109.730469 23.820312 C 109.15625 23.542969 108.570312 23.28125 107.972656 23.054688 Z M 107.972656 23.054688 " fill-opacity="1" fill-rule="nonzero"/></g></g></g><g clip-path="url(#ff650dd6ee)"><g clip-path="url(#9a86e8f203)"><g clip-path="url(#7fc0b0a166)"><path fill="#f8f5f2" d="M 124.949219 16.496094 C 125.007812 16.0625 125.027344 15.632812 125.019531 15.199219 C 125.011719 14.765625 124.972656 14.324219 124.886719 13.882812 C 124.800781 13.4375 124.667969 12.992188 124.476562 12.554688 C 124.28125 12.109375 124.015625 11.6875 123.699219 11.300781 C 123.378906 10.917969 123.003906 10.574219 122.597656 10.289062 C 121.78125 9.710938 120.863281 9.339844 119.941406 9.113281 C 119.480469 8.996094 119.007812 8.921875 118.554688 8.871094 C 118.097656 8.820312 117.636719 8.792969 117.183594 8.792969 C 116.273438 8.785156 115.371094 8.867188 114.5 9.023438 C 114.0625 9.097656 113.628906 9.191406 113.203125 9.296875 C 112.777344 9.40625 112.359375 9.53125 111.957031 9.660156 C 111.550781 9.789062 111.152344 9.925781 110.765625 10.0625 C 110.378906 10.195312 109.996094 10.324219 109.613281 10.445312 C 109.425781 10.507812 109.234375 10.566406 109.046875 10.621094 L 108.457031 10.789062 C 108.066406 10.898438 107.683594 10.996094 107.304688 11.082031 C 106.546875 11.246094 105.796875 11.335938 105.136719 11.21875 C 104.464844 11.109375 103.804688 10.804688 103.195312 10.34375 C 102.886719 10.117188 102.59375 9.855469 102.308594 9.570312 C 102.023438 9.285156 101.753906 8.976562 101.46875 8.652344 L 101.398438 8.679688 C 101.460938 9.089844 101.585938 9.492188 101.757812 9.882812 C 101.933594 10.273438 102.160156 10.65625 102.441406 11.011719 C 102.730469 11.363281 103.070312 11.691406 103.476562 11.964844 C 103.582031 12.03125 103.683594 12.097656 103.792969 12.15625 C 103.902344 12.21875 104.011719 12.273438 104.125 12.324219 C 104.351562 12.429688 104.59375 12.511719 104.835938 12.578125 C 105.082031 12.644531 105.335938 12.6875 105.582031 12.710938 C 105.828125 12.738281 106.070312 12.75 106.308594 12.746094 C 106.78125 12.742188 107.238281 12.695312 107.679688 12.628906 C 108.125 12.566406 108.550781 12.472656 108.96875 12.382812 L 109.585938 12.242188 C 109.796875 12.191406 110.011719 12.140625 110.21875 12.085938 C 110.632812 11.972656 111.039062 11.847656 111.4375 11.730469 L 112.613281 11.375 C 113 11.257812 113.382812 11.15625 113.765625 11.066406 C 114.148438 10.972656 114.53125 10.894531 114.917969 10.828125 C 115.691406 10.703125 116.46875 10.625 117.242188 10.628906 C 118.015625 10.632812 118.796875 10.703125 119.515625 10.875 C 120.238281 11.046875 120.914062 11.324219 121.472656 11.714844 C 121.75 11.90625 122 12.128906 122.210938 12.375 C 122.417969 12.625 122.59375 12.890625 122.726562 13.1875 C 122.863281 13.484375 122.964844 13.8125 123.035156 14.148438 C 123.109375 14.480469 123.148438 14.832031 123.164062 15.183594 C 123.179688 15.542969 123.171875 15.898438 123.136719 16.246094 C 123.097656 16.59375 123.03125 16.9375 122.941406 17.269531 C 122.851562 17.601562 122.726562 17.917969 122.574219 18.21875 C 122.417969 18.519531 122.234375 18.800781 122.011719 19.0625 C 121.574219 19.589844 121.007812 20.039062 120.367188 20.390625 C 120.042969 20.5625 119.699219 20.722656 119.347656 20.851562 C 118.996094 20.984375 118.628906 21.09375 118.253906 21.179688 C 117.882812 21.265625 117.496094 21.328125 117.109375 21.371094 C 116.925781 21.390625 116.742188 21.40625 116.554688 21.417969 C 116.566406 21.363281 116.582031 21.308594 116.597656 21.253906 C 116.625 21.136719 116.652344 21.019531 116.675781 20.898438 C 116.703125 20.78125 116.730469 20.660156 116.75 20.542969 L 116.78125 20.359375 L 116.796875 20.269531 L 116.808594 20.152344 C 116.820312 19.996094 116.816406 19.851562 116.800781 19.707031 C 116.769531 19.417969 116.699219 19.140625 116.582031 18.863281 C 116.523438 18.722656 116.449219 18.582031 116.351562 18.4375 C 116.324219 18.402344 116.300781 18.367188 116.273438 18.332031 C 116.242188 18.292969 116.210938 18.253906 116.175781 18.21875 C 116.144531 18.183594 116.109375 18.152344 116.074219 18.117188 C 116.035156 18.085938 116 18.054688 115.960938 18.023438 C 115.660156 17.785156 115.332031 17.65625 115.03125 17.570312 C 114.730469 17.484375 114.441406 17.441406 114.179688 17.410156 C 113.652344 17.339844 113.125 17.304688 112.605469 17.289062 C 111.566406 17.253906 110.554688 17.300781 109.554688 17.304688 C 109.304688 17.304688 109.054688 17.304688 108.808594 17.300781 C 108.558594 17.296875 108.320312 17.28125 108.074219 17.273438 C 107.585938 17.238281 107.097656 17.179688 106.613281 17.097656 C 106.132812 17.007812 105.65625 16.890625 105.183594 16.742188 C 104.714844 16.59375 104.253906 16.40625 103.808594 16.195312 C 103.359375 15.980469 102.933594 15.726562 102.515625 15.453125 C 102.101562 15.171875 101.710938 14.859375 101.332031 14.53125 C 101.644531 14.914062 101.984375 15.285156 102.359375 15.628906 C 102.738281 15.964844 103.148438 16.28125 103.582031 16.5625 C 104.019531 16.839844 104.480469 17.085938 104.960938 17.300781 C 105.441406 17.511719 105.941406 17.683594 106.449219 17.832031 C 106.957031 17.972656 107.476562 18.078125 107.996094 18.160156 L 108.390625 18.210938 C 108.519531 18.230469 108.648438 18.246094 108.777344 18.257812 C 109.039062 18.285156 109.292969 18.304688 109.550781 18.324219 C 110.582031 18.40625 111.59375 18.445312 112.578125 18.519531 C 113.070312 18.558594 113.558594 18.605469 114.039062 18.671875 C 114.160156 18.6875 114.273438 18.703125 114.382812 18.722656 C 114.488281 18.742188 114.589844 18.765625 114.683594 18.789062 C 114.871094 18.839844 115.023438 18.90625 115.121094 18.980469 L 115.15625 19.007812 C 115.164062 19.015625 115.175781 19.027344 115.183594 19.035156 C 115.191406 19.046875 115.203125 19.054688 115.210938 19.0625 L 115.242188 19.101562 C 115.285156 19.160156 115.332031 19.234375 115.375 19.316406 C 115.457031 19.476562 115.53125 19.664062 115.578125 19.847656 C 115.601562 19.9375 115.621094 20.027344 115.632812 20.109375 C 115.636719 20.128906 115.636719 20.148438 115.640625 20.167969 L 115.644531 20.253906 L 115.648438 20.425781 C 115.652344 20.542969 115.65625 20.660156 115.65625 20.773438 C 115.660156 20.890625 115.660156 21.007812 115.660156 21.125 C 115.660156 21.589844 115.632812 22.054688 115.578125 22.519531 C 115.523438 22.984375 115.453125 23.445312 115.371094 23.910156 C 115.210938 24.832031 114.992188 25.75 114.757812 26.667969 L 114.832031 26.691406 C 115.171875 25.808594 115.507812 24.921875 115.8125 24.019531 C 115.960938 23.574219 116.097656 23.121094 116.226562 22.664062 C 116.574219 22.675781 116.921875 22.675781 117.269531 22.660156 C 117.71875 22.640625 118.167969 22.59375 118.609375 22.519531 C 119.5 22.367188 120.363281 22.09375 121.171875 21.699219 C 121.984375 21.304688 122.734375 20.773438 123.347656 20.101562 C 123.652344 19.765625 123.921875 19.390625 124.140625 19 C 124.363281 18.605469 124.535156 18.195312 124.671875 17.773438 C 124.804688 17.355469 124.894531 16.925781 124.949219 16.496094 Z M 124.949219 16.496094 " fill-opacity="1" fill-rule="nonzero"/></g></g></g><g fill="#ffbd70" fill-opacity="1"><g transform="translate(11.847403, 57.045783)"><g><path d="M 7.96875 -28.28125 L 7.25 -28.265625 L 4.203125 -27.90625 L 3.09375 -27.75 L 1.96875 -27.546875 C 0.539062 -27.203125 -0.882812 -26.695312 -2.3125 -26.03125 C -2.800781 -25.800781 -3.335938 -25.597656 -3.921875 -25.421875 L -4.25 -25.296875 L -4.5625 -25.203125 C -5.28125 -24.867188 -6.144531 -24.519531 -7.15625 -24.15625 L -7.53125 -24.015625 L -7.90625 -23.890625 C -8.144531 -23.804688 -8.222656 -23.71875 -8.140625 -23.625 C -8.109375 -23.582031 -8.054688 -23.554688 -7.984375 -23.546875 L -7.84375 -23.53125 C -7.050781 -23.601562 -6.453125 -23.703125 -6.046875 -23.828125 C -5.640625 -23.953125 -5.195312 -24.0625 -4.71875 -24.15625 L -4.015625 -24.296875 L -3.28125 -24.421875 C -2.71875 -24.535156 -2.242188 -24.660156 -1.859375 -24.796875 L -1.6875 -24.828125 C -1.5625 -24.835938 -1.484375 -24.796875 -1.453125 -24.703125 L -1.390625 -24.453125 C -1.222656 -23.429688 -1.019531 -22.457031 -0.78125 -21.53125 L -0.640625 -20.921875 L -0.5625 -20.296875 L -0.328125 -19.109375 L -0.0625 -17.890625 L 0.1875 -16.640625 L 0.421875 -15.375 L 0.703125 -13.84375 L 0.9375 -12.3125 L 1.5 -8.59375 L 1.59375 -7.6875 L 1.6875 -6.796875 L 2.09375 -4.515625 L 2.5 -2.25 C 2.6875 -1.101562 2.90625 -0.21875 3.15625 0.40625 L 3.328125 0.96875 L 3.5 1.484375 L 3.640625 1.796875 L 3.796875 2.078125 C 3.921875 2.316406 4.113281 2.421875 4.375 2.390625 C 4.519531 2.378906 4.695312 2.382812 4.90625 2.40625 C 5.15625 2.4375 5.40625 2.382812 5.65625 2.25 L 6.203125 1.9375 C 6.398438 1.8125 6.59375 1.726562 6.78125 1.6875 C 7.1875 1.539062 7.425781 1.265625 7.5 0.859375 C 7.570312 0.453125 7.734375 0 7.984375 -0.5 C 8.171875 -0.875 8.253906 -1.335938 8.234375 -1.890625 L 8.1875 -3.09375 L 8.109375 -4.625 C 8.097656 -4.894531 8.0625 -5.203125 8 -5.546875 L 7.8125 -6.453125 C 7.675781 -7.179688 7.523438 -7.820312 7.359375 -8.375 L 7.140625 -9.171875 L 6.953125 -9.9375 C 6.734375 -11.144531 6.421875 -12.363281 6.015625 -13.59375 C 5.910156 -13.882812 5.8125 -14.265625 5.71875 -14.734375 L 5.453125 -15.921875 L 5.296875 -16.65625 L 5.15625 -17.421875 L 4.78125 -18.921875 L 4.484375 -20.421875 C 4.453125 -20.628906 4.394531 -20.796875 4.3125 -20.921875 C 4.019531 -21.335938 3.875 -21.804688 3.875 -22.328125 L 3.84375 -22.578125 L 3.78125 -22.84375 C 3.707031 -23.113281 3.675781 -23.351562 3.6875 -23.5625 C 3.695312 -23.789062 3.632812 -24.097656 3.5 -24.484375 L 3.328125 -25.015625 L 3.171875 -25.578125 C 3.117188 -25.734375 3.179688 -25.832031 3.359375 -25.875 L 3.546875 -25.921875 C 4.335938 -26.109375 5.070312 -26.351562 5.75 -26.65625 C 6.476562 -26.976562 7.0625 -27.160156 7.5 -27.203125 L 8.078125 -27.34375 L 8.59375 -27.5 C 8.832031 -27.582031 8.9375 -27.738281 8.90625 -27.96875 C 8.875 -28.101562 8.753906 -28.191406 8.546875 -28.234375 Z M 7.96875 -28.28125 "/></g></g></g><g fill="#ffbd70" fill-opacity="1"><g transform="translate(26.227383, 54.549812)"><g><path d="M 9.53125 -8.765625 C 9.601562 -7.203125 8.945312 -6.039062 7.5625 -5.28125 C 7.25 -5.101562 6.972656 -5.078125 6.734375 -5.203125 C 6.546875 -5.285156 6.375 -5.457031 6.21875 -5.71875 C 5.40625 -7.082031 5.039062 -8.457031 5.125 -9.84375 C 5.132812 -10.132812 5.125 -10.503906 5.09375 -10.953125 L 5.03125 -11.53125 L 5 -12.09375 C 4.957031 -12.582031 4.992188 -13.207031 5.109375 -13.96875 L 5.25 -14.875 L 5.34375 -15.8125 C 5.394531 -16.5625 5.738281 -17.203125 6.375 -17.734375 C 6.832031 -18.109375 7.46875 -18.4375 8.28125 -18.71875 C 8.769531 -18.875 9.070312 -18.613281 9.1875 -17.9375 C 9.28125 -16.8125 9.351562 -15.304688 9.40625 -13.421875 L 9.453125 -11.109375 Z M 15.4375 -12.234375 C 15.351562 -13.148438 15.09375 -14.164062 14.65625 -15.28125 L 14.046875 -16.6875 L 13.390625 -18.109375 C 13.117188 -18.679688 12.878906 -19.113281 12.671875 -19.40625 C 12.316406 -19.875 11.90625 -20.210938 11.4375 -20.421875 C 10.789062 -20.703125 10.238281 -20.773438 9.78125 -20.640625 C 9.3125 -20.515625 9.070312 -20.1875 9.0625 -19.65625 C 9.0625 -19.28125 8.863281 -19.148438 8.46875 -19.265625 C 7.351562 -19.578125 6.085938 -19.304688 4.671875 -18.453125 C 2.367188 -17.078125 0.941406 -14.8125 0.390625 -11.65625 C -0.316406 -7.570312 0.546875 -4.570312 2.984375 -2.65625 C 4.273438 -1.664062 5.304688 -1.117188 6.078125 -1.015625 C 7.222656 -0.859375 8.4375 -1.445312 9.71875 -2.78125 L 9.8125 -2.875 C 9.851562 -2.914062 9.882812 -2.929688 9.90625 -2.921875 C 9.988281 -2.898438 10.039062 -2.847656 10.0625 -2.765625 L 10.078125 -2.65625 L 10.078125 -2.5625 L 10.3125 1.03125 C 10.320312 1.4375 10.488281 1.757812 10.8125 2 C 11.144531 2.226562 11.503906 2.3125 11.890625 2.25 L 12.28125 2.140625 L 12.703125 2.03125 C 13.015625 1.957031 13.289062 1.929688 13.53125 1.953125 C 14.132812 1.992188 14.726562 1.796875 15.3125 1.359375 C 15.875 0.878906 16.195312 0.347656 16.28125 -0.234375 L 16.40625 -1.140625 C 16.4375 -1.472656 16.441406 -1.769531 16.421875 -2.03125 C 16.222656 -5.539062 15.894531 -8.941406 15.4375 -12.234375 Z M 15.4375 -12.234375 "/></g></g></g><g fill="#ffbd70" fill-opacity="1"><g transform="translate(45.387344, 52.266836)"><g><path d="M 3.171875 -14.484375 C 3.191406 -13.835938 3.285156 -13.40625 3.453125 -13.1875 C 3.609375 -12.96875 3.972656 -12.78125 4.546875 -12.625 L 5.65625 -12.3125 C 6.070312 -12.195312 6.425781 -12.078125 6.71875 -11.953125 C 7.519531 -11.628906 8.160156 -11.226562 8.640625 -10.75 C 9.523438 -9.914062 10.128906 -9 10.453125 -8 C 10.835938 -6.820312 10.769531 -5.707031 10.25 -4.65625 L 9.8125 -3.796875 C 9.65625 -3.472656 9.5 -3.203125 9.34375 -2.984375 C 8.945312 -2.359375 8.476562 -1.90625 7.9375 -1.625 C 7.59375 -1.4375 7.320312 -1.347656 7.125 -1.359375 C 4.59375 -1.398438 2.796875 -2.039062 1.734375 -3.28125 L 1.15625 -3.921875 L 0.5625 -4.53125 C 0.144531 -5.039062 -0.148438 -5.535156 -0.328125 -6.015625 L -0.40625 -6.140625 L -0.4375 -6.296875 C -0.46875 -6.421875 -0.445312 -6.507812 -0.375 -6.5625 C -0.300781 -6.59375 -0.222656 -6.5625 -0.140625 -6.46875 L -0.046875 -6.34375 L 0.015625 -6.203125 C 0.265625 -5.828125 0.640625 -5.5 1.140625 -5.21875 L 1.828125 -4.90625 L 2.5 -4.59375 C 2.8125 -4.414062 3.09375 -4.441406 3.34375 -4.671875 L 3.953125 -5.234375 C 4.203125 -5.460938 4.40625 -5.671875 4.5625 -5.859375 C 4.957031 -6.335938 5.203125 -6.847656 5.296875 -7.390625 C 5.460938 -8.222656 5.144531 -8.820312 4.34375 -9.1875 L 3.84375 -9.4375 L 3.34375 -9.671875 C 2.945312 -9.847656 2.628906 -10.019531 2.390625 -10.1875 C 0.441406 -11.570312 -0.613281 -13.066406 -0.78125 -14.671875 C -0.820312 -15.316406 -0.65625 -15.96875 -0.28125 -16.625 C 0.113281 -17.320312 0.628906 -17.742188 1.265625 -17.890625 L 1.75 -18.0625 L 2.265625 -18.28125 C 2.679688 -18.4375 3.039062 -18.515625 3.34375 -18.515625 C 4.476562 -18.492188 5.394531 -18.148438 6.09375 -17.484375 C 6.8125 -16.796875 7.203125 -15.863281 7.265625 -14.6875 C 7.273438 -14.570312 7.265625 -14.476562 7.234375 -14.40625 C 7.210938 -14.332031 7.15625 -14.28125 7.0625 -14.25 C 6.96875 -14.21875 6.882812 -14.238281 6.8125 -14.3125 L 6.71875 -14.375 L 6.65625 -14.484375 L 6.109375 -15.40625 C 5.890625 -15.789062 5.707031 -16.085938 5.5625 -16.296875 C 5.125 -16.921875 4.753906 -17.222656 4.453125 -17.203125 C 4.140625 -17.160156 3.832031 -16.800781 3.53125 -16.125 L 3.34375 -15.71875 L 3.203125 -15.3125 C 3.097656 -15.007812 3.085938 -14.734375 3.171875 -14.484375 Z M 3.171875 -14.484375 "/></g></g></g><g fill="#ffbd70" fill-opacity="1"><g transform="translate(59.610743, 51.16305)"><g><path d="M 13.921875 -4.59375 C 13.804688 -2.71875 13.546875 -1.019531 13.140625 0.5 L 13.078125 0.625 L 13.03125 0.78125 C 13 0.894531 13.035156 0.972656 13.140625 1.015625 C 13.210938 1.046875 13.285156 1.019531 13.359375 0.9375 L 13.4375 0.8125 L 13.484375 0.6875 L 13.59375 0.59375 L 13.734375 0.515625 L 13.734375 0.671875 L 13.75 0.8125 C 13.375 1.78125 12.769531 2.554688 11.9375 3.140625 C 11.03125 3.765625 10.085938 3.976562 9.109375 3.78125 C 5.148438 2.957031 2.921875 0.382812 2.421875 -3.9375 C 1.972656 -7.90625 1.765625 -11.742188 1.796875 -15.453125 C 1.804688 -15.796875 1.582031 -15.945312 1.125 -15.90625 L 0.203125 -15.796875 L -0.71875 -15.671875 C -1.445312 -15.578125 -2.070312 -15.539062 -2.59375 -15.5625 L -2.796875 -15.546875 L -3.03125 -15.578125 C -3.195312 -15.609375 -3.289062 -15.6875 -3.3125 -15.8125 C -3.320312 -15.925781 -3.25 -16.019531 -3.09375 -16.09375 L -2.90625 -16.171875 L -2.703125 -16.21875 C -1.179688 -16.644531 0.109375 -16.910156 1.171875 -17.015625 C 1.671875 -17.054688 1.925781 -17.328125 1.9375 -17.828125 C 2 -20.429688 2.140625 -22.691406 2.359375 -24.609375 L 2.359375 -25 L 2.375 -25.421875 C 2.414062 -25.722656 2.554688 -25.875 2.796875 -25.875 L 3.46875 -25.90625 C 3.738281 -25.914062 3.960938 -25.914062 4.140625 -25.90625 C 4.671875 -25.84375 5.066406 -25.601562 5.328125 -25.1875 C 5.703125 -24.601562 5.988281 -23.890625 6.1875 -23.046875 L 6.375 -21.921875 L 6.546875 -20.78125 C 6.734375 -19.726562 6.882812 -18.707031 7 -17.71875 C 7.03125 -17.40625 7.238281 -17.253906 7.625 -17.265625 L 8.71875 -17.3125 L 9.828125 -17.359375 C 10.671875 -17.367188 11.398438 -17.3125 12.015625 -17.1875 L 12.171875 -17.15625 L 12.34375 -17.140625 C 12.457031 -17.117188 12.546875 -17.0625 12.609375 -16.96875 L 12.296875 -16.828125 L 12 -16.75 L 7.890625 -16.171875 C 7.460938 -16.117188 7.257812 -15.898438 7.28125 -15.515625 L 7.453125 -8.875 L 7.65625 -2.234375 C 7.675781 -1.742188 7.75 -1.148438 7.875 -0.453125 L 8.03125 0.453125 L 8.171875 1.34375 L 8.234375 1.53125 L 8.3125 1.71875 C 8.65625 2.644531 9.132812 2.742188 9.75 2.015625 C 11.6875 -0.234375 12.863281 -2.738281 13.28125 -5.5 L 13.296875 -5.703125 L 13.3125 -5.890625 C 13.351562 -6.023438 13.429688 -6.09375 13.546875 -6.09375 C 13.691406 -6.101562 13.757812 -6.035156 13.75 -5.890625 L 13.734375 -5.71875 L 13.734375 -5.53125 L 13.828125 -5.03125 Z M 13.921875 -4.59375 "/></g></g></g><g fill="#ffbd70" fill-opacity="1"><g transform="translate(76.065122, 50.58323)"><g><path d="M 6.203125 -12.0625 C 6.304688 -12.351562 6.414062 -12.710938 6.53125 -13.140625 L 6.796875 -14.25 C 7.035156 -15.125 7.335938 -15.8125 7.703125 -16.3125 L 7.78125 -16.390625 L 7.8125 -16.46875 C 7.90625 -17.300781 8.242188 -17.75 8.828125 -17.8125 C 9.179688 -17.832031 9.578125 -17.675781 10.015625 -17.34375 C 10.453125 -17 10.71875 -16.644531 10.8125 -16.28125 L 10.921875 -15.9375 L 11.015625 -15.5625 C 11.054688 -15.269531 11.070312 -14.988281 11.0625 -14.71875 C 10.738281 -13.6875 10.035156 -12.894531 8.953125 -12.34375 C 8.617188 -12.164062 8.226562 -12.035156 7.78125 -11.953125 L 7.171875 -11.828125 L 6.5625 -11.75 C 6.40625 -11.71875 6.296875 -11.722656 6.234375 -11.765625 C 6.140625 -11.796875 6.128906 -11.894531 6.203125 -12.0625 Z M 15.96875 -8.578125 C 15.800781 -8.710938 15.648438 -8.726562 15.515625 -8.625 L 15.34375 -8.453125 L 15.1875 -8.28125 L 14.484375 -7.5 L 13.8125 -6.734375 C 13.257812 -6.148438 12.726562 -5.71875 12.21875 -5.4375 L 11.640625 -5.09375 L 11.046875 -4.78125 C 10.566406 -4.5625 10.132812 -4.515625 9.75 -4.640625 C 8.75 -4.953125 7.867188 -5.625 7.109375 -6.65625 C 6.367188 -7.675781 5.972656 -8.734375 5.921875 -9.828125 C 5.898438 -10.535156 6.175781 -10.894531 6.75 -10.90625 C 8.8125 -10.945312 10.617188 -11.640625 12.171875 -12.984375 C 12.765625 -13.492188 13.144531 -14.132812 13.3125 -14.90625 C 13.476562 -15.644531 13.382812 -16.265625 13.03125 -16.765625 C 11.875 -18.347656 10.472656 -19.195312 8.828125 -19.3125 L 8.625 -19.34375 L 8.46875 -19.375 L 8.203125 -19.4375 L 7.515625 -19.46875 L 6.84375 -19.5 C 6.320312 -19.476562 5.898438 -19.316406 5.578125 -19.015625 C 4.929688 -18.410156 4.257812 -17.609375 3.5625 -16.609375 C 1.300781 -13.347656 0.328125 -10.4375 0.640625 -7.875 C 1.023438 -4.726562 2.144531 -2.457031 4 -1.0625 C 5.125 -0.238281 6.363281 0.144531 7.71875 0.09375 C 9.039062 0.0507812 10.128906 -0.40625 10.984375 -1.28125 C 12.984375 -3.351562 14.59375 -5.535156 15.8125 -7.828125 L 15.953125 -7.984375 L 16.109375 -8.15625 C 16.203125 -8.300781 16.15625 -8.441406 15.96875 -8.578125 Z M 15.96875 -8.578125 "/></g></g></g><g fill="#ffbd70" fill-opacity="1"><g transform="translate(94.54889, 50.836492)"><g><path d="M 17.359375 -22.078125 C 17.203125 -22.847656 16.8125 -23.304688 16.1875 -23.453125 C 15.457031 -23.640625 14.785156 -23.554688 14.171875 -23.203125 C 13.546875 -22.828125 13.203125 -22.316406 13.140625 -21.671875 L 12.796875 -18.5625 L 12.46875 -15.5 C 12.414062 -14.988281 12.1875 -14.601562 11.78125 -14.34375 C 11.132812 -13.945312 10.375 -13.707031 9.5 -13.625 C 9.15625 -13.570312 8.757812 -13.550781 8.3125 -13.5625 L 7.09375 -13.59375 C 6.9375 -13.601562 6.847656 -13.671875 6.828125 -13.796875 L 6.8125 -13.96875 L 6.828125 -14.15625 L 6.890625 -15.78125 C 6.929688 -16.4375 6.941406 -16.976562 6.921875 -17.40625 L 6.828125 -20.109375 L 6.65625 -22.8125 L 6.65625 -23.1875 L 6.625 -23.578125 C 6.613281 -23.867188 6.578125 -24.101562 6.515625 -24.28125 C 6.359375 -24.757812 5.976562 -25.054688 5.375 -25.171875 L 4.609375 -25.3125 L 3.828125 -25.40625 C 3.242188 -25.425781 2.742188 -25.289062 2.328125 -25 C 1.910156 -24.726562 1.703125 -24.375 1.703125 -23.9375 C 1.710938 -22.425781 1.632812 -20.492188 1.46875 -18.140625 L 1.265625 -15.265625 L 1.078125 -12.359375 L 0.90625 -8.8125 L 0.703125 -5.21875 C 0.503906 -2.550781 0.242188 -0.1875 -0.078125 1.875 C -0.128906 2.207031 -0.0546875 2.457031 0.140625 2.625 C 0.335938 2.800781 0.5625 2.804688 0.8125 2.640625 C 1.164062 2.429688 1.628906 2.40625 2.203125 2.5625 C 3.171875 2.8125 3.84375 2.523438 4.21875 1.703125 C 4.59375 0.878906 4.863281 0.0859375 5.03125 -0.671875 C 5.375 -2.328125 5.675781 -4.207031 5.9375 -6.3125 L 6.25 -9.15625 L 6.546875 -11.984375 C 6.585938 -12.441406 6.847656 -12.632812 7.328125 -12.5625 L 8.34375 -12.359375 L 9.375 -12.1875 C 10.164062 -12.082031 10.859375 -12.109375 11.453125 -12.265625 C 11.804688 -12.359375 11.976562 -12.191406 11.96875 -11.765625 L 11.921875 -9.9375 L 11.921875 -8.140625 L 11.75 -5.515625 C 11.695312 -4.492188 11.734375 -3.617188 11.859375 -2.890625 L 11.875 -2.734375 L 11.890625 -2.546875 C 11.910156 -2.398438 11.972656 -2.347656 12.078125 -2.390625 C 12.203125 -2.421875 12.347656 -2.441406 12.515625 -2.453125 L 12.9375 -2.46875 C 13.28125 -2.488281 13.550781 -2.597656 13.75 -2.796875 C 13.957031 -3.046875 14.222656 -3.164062 14.546875 -3.15625 C 15.242188 -3.144531 15.695312 -3.476562 15.90625 -4.15625 C 16.25 -5.300781 16.5625 -6.71875 16.84375 -8.40625 L 17.375 -11.796875 C 17.550781 -13.054688 17.671875 -14.191406 17.734375 -15.203125 C 17.910156 -17.734375 17.785156 -20.023438 17.359375 -22.078125 Z M 17.359375 -22.078125 "/></g></g></g><g fill="#ffbd70" fill-opacity="1"><g transform="translate(113.594527, 52.115078)"><g><path d="M 1.1875 -9.5 C 1.21875 -10.269531 1.367188 -11.222656 1.640625 -12.359375 L 2.03125 -13.8125 L 2.40625 -15.265625 C 2.425781 -15.347656 2.425781 -15.453125 2.40625 -15.578125 L 2.375 -15.859375 C 2.351562 -16.109375 2.410156 -16.304688 2.546875 -16.453125 C 2.785156 -16.679688 3.054688 -16.816406 3.359375 -16.859375 C 3.640625 -16.898438 3.910156 -16.863281 4.171875 -16.75 C 4.796875 -16.476562 5.125 -15.921875 5.15625 -15.078125 L 5.234375 -13.125 L 5.34375 -11.171875 C 5.425781 -9.609375 5.410156 -8.300781 5.296875 -7.25 C 5.171875 -6.019531 5.179688 -4.582031 5.328125 -2.9375 C 5.429688 -1.96875 5.832031 -1.289062 6.53125 -0.90625 C 7.113281 -0.582031 7.703125 -0.617188 8.296875 -1.015625 C 8.890625 -1.410156 9.226562 -1.976562 9.3125 -2.71875 C 9.414062 -3.695312 9.566406 -4.804688 9.765625 -6.046875 L 10.328125 -9.34375 L 10.890625 -12.4375 L 11.453125 -15.546875 C 11.492188 -15.796875 11.613281 -15.941406 11.8125 -15.984375 C 12.375 -16.109375 12.957031 -15.988281 13.5625 -15.625 C 14.21875 -15.226562 14.566406 -14.679688 14.609375 -13.984375 L 14.578125 -13.390625 L 14.578125 -12.75 C 14.585938 -12.25 14.722656 -11.84375 14.984375 -11.53125 C 15.023438 -11.5 15.035156 -11.421875 15.015625 -11.296875 L 14.984375 -11.03125 C 14.804688 -9.832031 14.707031 -8.3125 14.6875 -6.46875 L 14.671875 -4.1875 L 14.59375 -1.90625 L 14.515625 -0.328125 L 14.390625 1.234375 C 14.253906 2.410156 14.023438 3.4375 13.703125 4.3125 C 13.515625 4.84375 13.03125 5.378906 12.25 5.921875 C 11.851562 6.191406 11.492188 6.296875 11.171875 6.234375 C 11.046875 6.203125 10.90625 6.144531 10.75 6.0625 L 10.53125 5.9375 L 10.296875 5.78125 L 10.0625 5.609375 L 9.875 5.4375 C 8.882812 4.644531 8.503906 3.296875 8.734375 1.390625 C 8.796875 0.890625 8.785156 0.609375 8.703125 0.546875 C 8.628906 0.460938 8.367188 0.484375 7.921875 0.609375 C 6.828125 0.910156 5.8125 0.664062 4.875 -0.125 C 4.664062 -0.3125 4.398438 -0.503906 4.078125 -0.703125 L 3.25 -1.203125 C 2.164062 -1.890625 1.484375 -2.859375 1.203125 -4.109375 C 0.921875 -5.378906 0.914062 -7.175781 1.1875 -9.5 Z M 1.1875 -9.5 "/></g></g></g><g fill="#ffbd70" fill-opacity="1"><g transform="translate(130.313912, 54.026184)"><g><path d="M 13.21875 -7.15625 L 13.203125 -7.765625 C 13.191406 -8.210938 13.171875 -8.582031 13.140625 -8.875 L 13.046875 -9.640625 C 13.003906 -9.921875 12.945312 -10.175781 12.875 -10.40625 C 12.695312 -10.9375 12.414062 -11.328125 12.03125 -11.578125 C 11.269531 -12.078125 10.148438 -12.328125 8.671875 -12.328125 C 8.410156 -12.316406 8.273438 -12.164062 8.265625 -11.875 L 8.21875 -10.6875 L 8.15625 -9.515625 L 8.046875 -7.75 C 7.992188 -7.070312 7.925781 -6.492188 7.84375 -6.015625 L 7.34375 -3.609375 C 7.175781 -2.671875 7.050781 -1.863281 6.96875 -1.1875 L 6.96875 -1.015625 L 7 -0.890625 C 7.019531 -0.785156 7.085938 -0.75 7.203125 -0.78125 C 7.347656 -0.8125 7.507812 -0.835938 7.6875 -0.859375 L 8.140625 -0.828125 C 8.546875 -0.828125 8.851562 -0.875 9.0625 -0.96875 C 11.144531 -2 12.535156 -3.832031 13.234375 -6.46875 Z M 9.015625 -19.234375 C 9.035156 -18.992188 9.019531 -18.707031 8.96875 -18.375 L 8.859375 -17.515625 C 8.753906 -16.753906 8.765625 -16.128906 8.890625 -15.640625 C 8.921875 -15.566406 8.925781 -15.460938 8.90625 -15.328125 L 8.8125 -15.015625 C 8.59375 -14.410156 8.523438 -14.039062 8.609375 -13.90625 C 8.691406 -13.78125 9.046875 -13.703125 9.671875 -13.671875 C 11.265625 -13.609375 12.738281 -12.992188 14.09375 -11.828125 C 15.5625 -10.535156 16.222656 -8.804688 16.078125 -6.640625 C 15.921875 -3.941406 15.148438 -1.960938 13.765625 -0.703125 C 11.390625 1.453125 9.144531 2.140625 7.03125 1.359375 C 6.257812 1.085938 5.535156 1.113281 4.859375 1.4375 C 4.515625 1.613281 4.066406 1.707031 3.515625 1.71875 L 2.796875 1.703125 L 2.125 1.6875 C 1.84375 1.695312 1.554688 1.46875 1.265625 1 C 0.960938 0.539062 0.804688 0.0976562 0.796875 -0.328125 C 0.691406 -2.710938 1.125 -6.171875 2.09375 -10.703125 L 2.421875 -12.453125 L 2.671875 -14.25 C 2.910156 -15.726562 3.148438 -16.90625 3.390625 -17.78125 L 3.9375 -19.8125 L 4.4375 -21.859375 C 4.789062 -23.390625 5.03125 -24.785156 5.15625 -26.046875 C 5.1875 -26.304688 5.390625 -26.46875 5.765625 -26.53125 C 6.140625 -26.582031 6.492188 -26.484375 6.828125 -26.234375 C 7.140625 -26.015625 7.5 -25.800781 7.90625 -25.59375 C 8.738281 -25.1875 9.164062 -24.425781 9.1875 -23.3125 C 9.195312 -22.65625 9.1875 -22.003906 9.15625 -21.359375 L 9.09375 -20.375 L 9.0625 -19.796875 Z M 9.015625 -19.234375 "/></g></g></g></svg>